<svg xmlns="http://www.w3.org/2000/svg" width="340" height="152.667" viewBox="-28.5 0 340 152.667" enable-background="new -28.5 0 340 152.667"><path fill="none" stroke="#fff" stroke-width="3.5" stroke-miterlimit="10" d="M114.108 137.455s16.46-20.35 72.328-4.61c55.87 15.743 73.15-1.173 75.49-6.315"/><ellipse transform="matrix(.951 .31 -.31 .951 37.714 -47.534)" fill="none" stroke="#fff" stroke-width="3.5" stroke-miterlimit="10" cx="168.48" cy="94.946" rx="12.408" ry="18.818"/><path fill="none" stroke="#fff" stroke-width="3.5" stroke-miterlimit="10" d="M217.007 61.95c0-3.826 4.444-10.19 39.444-.19s29-3 29-3M238.86 90.08c-3.22 9.88-6.062 23.17-13.728 23.17-9.73 0-8.89-11.107-7.356-19.54l3.334-14.335s-1.502 9.55-4.722 19.43c-3.222 9.88-11.114 16.17-17.627 14.047-6.515-2.123-7.16-8.66-5.15-20.102s3.667-16.875 4.584-14.168c.916 2.71-13.012 8.523-16.942 10.477-17.872 8.882-25.37 5.83-23.84.07M109.69 141.62c-7.762 7.558-17.933 4.968-19.625-4.626-5.612-31.817 27.795-133.16 24.456-133.16-21.528 0-50.222 61.4-67.62 94.386-7.63 15.633-16.084 20.773-23.89 20.5-8.61-.352-13.968-8.836-9.2-16.252M157.22 89.6c-8.503 8.503-28.736-3.394-20.403-9.665 4.666-3.417 7.667 2.584 7.667 11.336 0 8.755-6.793 21.98-16.668 21.98-9.625 0-10.784-9.424-9.25-17.857 1.718-9.44 4.196-31.73 11.02-52.41 4.136-15.095 14.177-33.432 18.196-27.838 4.02 5.595-2.847 32.005-24.896 48.237l-1.968 1.253M-19.358 86.232c3.164-5.895 7.37-11.036 13.387-14.332 4.104-2.246 9.05-3.633 15.087-3.813 11.583.24 23.555 21.284 14.936 23.657-4.85 1.365-10.343-12.258-11.39-23.154-.09-2.39.467-5.466 1.66-8.754 4.035-11.11 15.477-15.364 33.54-8.65 18.06 6.713 42.047 30.906 71.862 14.093l3.16-2.013M255.867 107.75c-4.24 5.71-8.51 6.705-11.686 5.62-4.937-1.687-7.665-8.16-6.32-16.624 1.52-9.584 4.532-34.818 11.355-55.498 4.136-15.096 14.177-33.432 18.196-27.838 4.022 5.594-6.115 19.168-22.948 46.335"/></svg>