<svg xmlns="http://www.w3.org/2000/svg" width="340" height="160.833" viewBox="-28.5 0 340 160.833" enable-background="new -28.5 0 340 160.833"><path fill="none" stroke="#fff" stroke-width="3.5" stroke-miterlimit="10" d="M275.644 108.416c-4.24 5.707-8.51 6.705-11.686 5.62-4.938-1.69-7.666-8.16-6.323-16.626 1.52-9.582 4.533-34.817 11.357-55.497 4.136-15.096 14.176-33.432 18.196-27.838s-6.116 19.168-22.95 46.335c0 0-12.358 27.953-21.608 40.953s-17.9 14.242-24.415 12.12c-2.85-.93-4.965-3.317-6.173-6.534-1.552-4.136-1.604-9.646.207-15.204 3.22-9.88 11.003-16.086 17.626-14.047 3.98 1.138 7.886 3.98 3.698 13.353M236.783 62.603c0-3.825 4.444-10.188 39.444-.188s29-3 29-3"/><ellipse transform="matrix(.951 .31 -.31 .951 32.876 -15.499)" fill="none" stroke="#fff" stroke-width="3.5" stroke-miterlimit="10" cx="65.225" cy="95.735" rx="12.408" ry="18.818"/><path fill="none" stroke="#fff" stroke-width="3.5" stroke-miterlimit="10" d="M123.34 62.603c0-3.825 4.445-10.188 39.445-.188s29-3 29-3"/><ellipse transform="matrix(.951 .31 -.31 .951 38.534 -51.113)" fill="none" stroke="#fff" stroke-width="3.5" stroke-miterlimit="10" cx="180.151" cy="95.735" rx="12.407" ry="18.818"/><path fill="none" stroke="#fff" stroke-width="3.5" stroke-miterlimit="10" d="M169.073 89.933c-1.868 7.03 8.267 6.16 13.97 3.645 6.38-2.814 20.832-10.188 18.42-12.186-1.234-1.023-4.905 4.295-6.162 7.332-1.157 2.797-2.218 7.107-3.02 10.982-.89 4.31-1.457 8.078-1.478 8.623-.086 2.175.45 3.804 1.77 4.538 3.717 1.77 10.072-1.44 20.886-24.332M99.893 75.082c.736.52-1.764 5.22-5.812 7.562-20.585 13.34-35.784 15.535-41.31 12.832-1.84-.9-1.765-2.768-1.557-3.352s.85-1.375 2.066.238M99.893 75.082c-1.698-1.198-3 3-3.688 5.688-1.898 8.13-7.364 29.607-7.646 32.576 0 0 3.594-11.855 6.813-21.736 3.222-9.88 11.114-16.17 17.627-14.047 6.516 2.123 6.935 9.56 4.537 19.787 0 0-1.347 5.654-1.635 6.92-.67 2.945-2.232 8.266 2.66 8.266 16.69 0 32.233-52.257 32.233-52.257 16.833-27.168 26.97-40.742 22.95-46.336s-14.062 12.742-18.198 27.838c-6.822 20.68-9.835 45.915-11.355 55.497-1.344 8.466 1.134 16.07 6.322 16.624 5.844.625 11.428-1.92 18.854-22.146M28.963 152.667s29.235-39.303 128.477-8.902c74.522 23.695 117.252-4.264 124.242-16.627M52.34 96.49c-3.4 15.828-17.434 26.973-25.963 30.734-22.412 9.89-41.716-4.99-42.32-29.955 0-26.71 16.235-68.048 66.905-80.45 29.585-8.117 38.138 23.31 6.61 31.053-31.528 7.742-81.705-.982-79.02-25.147 2.78-17.79 28.613-11.746 22.876-3.4-3.562 5.183-15.33-5.48-11.23-13.48C-8.706 3.714-5.843 1.46-1.685 1"/></svg>