<svg xmlns="http://www.w3.org/2000/svg" width="270" height="152.667" viewBox="0 0 270 152.667"><path fill="none" stroke="#000" stroke-width="3.5" stroke-miterlimit="10" d="M93.88 146.01s15.037-20.35 66.088-4.61 66.84-1.174 68.978-6.316M3.04 50.907c7.616-7.11 16.067-10.02 25.374-5.71 9.26 4.866 10.443 26.702 2.522 25.142-5.173-1.02-3.423-18.06 2.083-27.622.67-1.166 16.945-37.594 29.17-24.23 3.635 3.973 3.495 13.924 1.163 26.922 0 0-5.748 25.19-8.86 38.574-5.027 21.633-14.674 54.727-12.487 55.443 2.187.72 51.368-98.02 52.18-97.658.81.36-6.79 32.364-9.922 47.29-3.133 14.926-14.195 49.168-10.573 50.398 2.805.953 33.906-69.564 61.436-105.55l.22-.3.072-.09c25.44-36.12 65.247-29.857 94.747-14.69"/><ellipse transform="matrix(.951 .31 -.31 .951 37.333 -32.816)" fill="none" stroke="#000" stroke-width="3.5" stroke-miterlimit="10" cx="121.963" cy="101.108" rx="12.408" ry="18.818"/><path fill="none" stroke="#000" stroke-width="3.5" stroke-miterlimit="10" d="M219.573 119.107s-6.55 10.313-14.976-2.443c-5.53-8.375-4.736-19.516-10.055-12.883-5.32 6.634 13.647 6.897 17.116-3.683 3.18-9.69-.71-14.15-7.335-15.9-15.585-4.576-24.184 35.215-24.184 35.215s3.25-43.11 11.968-68.527c4.136-15.096 12.68-31.963 18.196-27.838 3.918 2.93 1.718 18.947-20.332 35.18-9.3 6.687-18.83 5.01-27.06.358M110.896 95.29c-1.532 5.763 6.1 13.793 23.973 4.91 3.93-1.954 23.3-12.264 17.792-16.7-4.604-3.708-8.988 11.247 1.353 11.247 7.076 0 13.92-4.175 14.877-6.537 1.833-4.522-3.9-6.385-5.582-.805 0 0-5.942 24.553-5.998 27.057-.033 1.423.066 3.48 1.77 4.54 4.228 2.013 11.58-2.417 25.31-34.916"/></svg>